<?xml version="1.0" standalone="no"?><!DOCTYPE svg PUBLIC "-//W3C//DTD SVG 1.1//EN" "http://www.w3.org/Graphics/SVG/1.1/DTD/svg11.dtd"><svg t="1736003202826" class="icon" viewBox="0 0 1024 1024" version="1.1" xmlns="http://www.w3.org/2000/svg" p-id="1051" xmlns:xlink="http://www.w3.org/1999/xlink" width="200" height="200"><path d="M280.51585948 225.63653135h67.8886207C371.1294749 225.63653135 389.27265313 243.94334521 389.27265313 266.54561299a40.90908164 40.90908164 0 0 1-41.09317295 40.90908164H184.93179013A41.11362685 41.11362685 0 0 1 143.81816329 266.36152169V103.11383164C143.81816329 80.45020039 162.12497715 62.00020479 184.72724492 62.00020479c22.74544951 0 40.90908164 18.30681386 40.90908164 40.86817206v61.9568042A448.772625 448.772625 0 0 1 511.99989805 62.00020479c248.5226707 0 449.99989805 201.47722734 449.99989716 449.99989716s-201.47722734 449.99989805-449.99989716 449.99989805S62 760.52277266 62 512.00010195a40.90908164 40.90908164 0 0 1 81.81816327 0c0 203.33858994 164.84314395 368.18173477 368.18173478 368.18173478s368.18173477-164.84314395 368.18173388-368.18173478S715.33848799 143.81836807 511.99989805 143.81836807a367.01582607 367.01582607 0 0 0-231.48403857 81.81816328z" fill="#000000" p-id="1052"></path></svg>