<?xml version="1.0" encoding="utf-8"?>
<!-- Generator: Adobe Illustrator 27.1.1, SVG Export Plug-In . SVG Version: 6.00 Build 0)  -->
<svg version="1.1" id="图层_1" xmlns="http://www.w3.org/2000/svg" xmlns:xlink="http://www.w3.org/1999/xlink" x="0px" y="0px"
	 viewBox="0 0 1024 1024" style="enable-background:new 0 0 1024 1024;" xml:space="preserve">
<style type="text/css">
	.st0{fill:#2CA6E0;}
	.st1{fill:none;}
</style>
<g>
	<path class="st0" d="M608.6,840.3c-26.1,0-52.2-2-78.2-6.2c-21.8-3.5-36.7-24-33.2-45.8c3.5-21.8,24-36.7,45.8-33.2
		c77.1,12.2,155.9,2.7,227.8-27.5c68.8-28.9,101.2-108.3,72.3-177.1c-17.9-42.6-55.7-72.8-101.2-80.8c-10.4-1.8-19.7-7.8-25.8-16.4
		c-6.1-8.7-8.5-19.4-6.6-29.9c6.3-35.6-1.7-71.5-22.4-101.1s-51.7-49.4-87.3-55.6c-28.9-5.1-59.1-0.5-85.3,12.9
		c-19.6,10.1-43.8,2.4-53.9-17.3c-10.1-19.6-2.4-43.8,17.3-53.9c41.6-21.4,89.8-28.7,135.7-20.6c56.6,10,106,41.4,139,88.5
		c25.8,36.9,39.2,79.9,39,124.1c22.1,8,42.8,19.5,61.2,34.2c28.1,22.4,50.2,51.7,64.1,84.9c22.3,53,22.6,111.5,0.8,164.8
		c-21.7,53.2-62.9,94.8-115.9,117.1C740.2,827.2,674.6,840.3,608.6,840.3z"/>
	<path class="st0" d="M348.2,789.2c-53.4,0-107-10.7-156.2-31.4l0,0c-56.2-23.6-96-73.5-106.6-133.5
		C70.4,539.7,118.1,458.2,195,427.6c1.3-47.4,21.5-92.6,57.2-125.6c35-32.4,80.5-49.2,128.1-47.3c47.6,1.8,91.7,22.1,124.1,57.1
		c41.2,44.5,72.2,98.6,89.8,156.6c17.6,58,21.8,120.3,12.3,180.1c-6.1,38.4-29.1,71.2-63,90c-53,29.4-113,46.7-173.5,50.1
		C362.7,789.1,355.4,789.2,348.2,789.2z M373.3,334.6c-24.8,0-48.4,9.2-66.8,26.2c-24.7,22.8-35.9,56.2-30.1,89.3
		c1.8,10.4-0.5,21.2-6.6,29.9c-6.1,8.7-15.4,14.6-25.8,16.4c-53.4,9.4-89.3,60.6-79.8,114c5.8,33.1,27.8,60.6,58.8,73.7c0,0,0,0,0,0
		c40.4,17,82.8,25.4,125.1,25.4c53.9,0,107.6-13.7,156.4-40.8c12.3-6.9,20.7-18.8,22.9-32.7c15.7-98.4-14.1-196.7-81.8-269.8
		c-17.9-19.3-42.2-30.5-68.4-31.5C375.9,334.6,374.6,334.6,373.3,334.6z"/>
	<rect x="73.5" y="77.8" class="st1" width="869.2" height="869.2"/>
</g>
</svg>
