<?xml version="1.0" standalone="no"?><!DOCTYPE svg PUBLIC "-//W3C//DTD SVG 1.1//EN" "http://www.w3.org/Graphics/SVG/1.1/DTD/svg11.dtd"><svg t="1736003383421" class="icon" viewBox="0 0 1024 1024" version="1.1" xmlns="http://www.w3.org/2000/svg" p-id="991" xmlns:xlink="http://www.w3.org/1999/xlink" width="200" height="200"><path d="M590.13853558 518.6416597c0.00082974-1.7870386-0.0862825-3.57407639-0.24640218-5.35530679l303.83382622-309.09372501c22.61424682-23.00251685 22.61424682-60.25819758 0-83.28145551-11.29799707-11.46973233-26.1061886-17.23570972-40.92018831-17.23570972-14.81068076 0-29.61638305 5.76597739-40.92350647 17.23570972L516.99939261 420.93281582 217.17188337 121.02732068c-11.57924433-11.54688848-26.73754267-17.35185882-41.90413761-17.35185883-15.16410571 0-30.33070066 5.80497034-41.89833024 17.35185883-23.15931839 23.17425127-23.15931839 60.68546054 0 83.84726816L447.06015997 518.61925913 133.36858662 832.37969287c-23.15931839 23.15931839-23.15931839 60.66472027-1e-8 83.80910496 23.14770282 23.1684439 60.65227579 23.1684439 83.80246784 0l302.58024527-302.62504561 292.13096675 297.18843393c22.60760971 23.01413159 59.23525535 23.01413159 81.8436948 0 22.61424682-22.9933905 22.61424682-60.24907205 0-83.25158807L590.13853558 518.6416597z" fill="#000000" p-id="992"></path></svg>