<?xml version="1.0" standalone="no"?><!DOCTYPE svg PUBLIC "-//W3C//DTD SVG 1.1//EN" "http://www.w3.org/Graphics/SVG/1.1/DTD/svg11.dtd"><svg t="1737468963018" class="icon" viewBox="0 0 1024 1024" version="1.1" xmlns="http://www.w3.org/2000/svg" p-id="991" xmlns:xlink="http://www.w3.org/1999/xlink" width="200" height="200"><path d="M350.92707555 427.96828445a48.54518557 48.54518557 0 0 1-61.50675 74.85667555l-4.70888221-3.88361443-194.18074112-181.12208669a48.49664 48.49664 0 0 1-15.00046222-42.04012999l-0.3883611-3.88361444 0.09708999-6.31087445 0.82526777-6.06814777 1.45635555-5.38851556 2.13598891-5.38851555 2.52434887-4.75742891 3.10689223-4.46615666 4.02924999-4.56324778 194.18074112-194.18073998a48.54518557 48.54518557 0 0 1 72.67214222 64.07964444l-4.02924998 4.56324665L240.82659555 220.72888889h329.33053668C779.72669667 220.72888889 948.90666667 395.10319445 948.90666667 609.62436779c0 203.5499611-153.49987555 333.99087445-365.69088 339.13666332l-13.05865444 0.14563556H249.856a48.54518557 48.54518557 0 0 1-5.6312411-96.75055446L249.80745443 851.81629667h320.39822223C739.09437667 851.81629667 851.81629667 759.09499221 851.81629667 609.62436779c0-157.86894222-120.68332999-285.88259555-271.12486001-291.61092779L570.15713223 317.81925888H232.86518557l118.06188998 110.14902557z" fill="#000000" p-id="992"></path></svg>