<?xml version="1.0" standalone="no"?><!DOCTYPE svg PUBLIC "-//W3C//DTD SVG 1.1//EN" "http://www.w3.org/Graphics/SVG/1.1/DTD/svg11.dtd"><svg t="1693669914238" class="icon" viewBox="0 0 1024 1024" version="1.1" xmlns="http://www.w3.org/2000/svg" p-id="1301" xmlns:xlink="http://www.w3.org/1999/xlink" width="200" height="200"><path d="M755.2 780.8L896 640l59.733333 59.733333-200.533333 200.533334-119.466667-119.466667 59.733334-59.733333 59.733333 59.733333zM597.333333 768v85.333333H256v-170.666666h4.266667l85.333333-85.333334h375.466667l85.333333 85.333334h-426.666667l-38.4 38.4V768h256z m213.333334-81.066667z m-85.333334-324.266666c0 106.666667-85.333333 192-192 192S341.333333 469.333333 341.333333 362.666667 426.666667 170.666667 533.333333 170.666667 725.333333 256 725.333333 362.666667z m-85.333333 0C640 302.933333 593.066667 256 533.333333 256S426.666667 302.933333 426.666667 362.666667s46.933333 106.666667 106.666666 106.666666S640 422.4 640 362.666667z" fill="#1296db" p-id="1302"></path></svg>