<?xml version="1.0" standalone="no"?><!DOCTYPE svg PUBLIC "-//W3C//DTD SVG 1.1//EN" "http://www.w3.org/Graphics/SVG/1.1/DTD/svg11.dtd"><svg t="1704334944739" class="icon" viewBox="0 0 1024 1024" version="1.1" xmlns="http://www.w3.org/2000/svg" p-id="2326" xmlns:xlink="http://www.w3.org/1999/xlink" width="200" height="200"><path d="M557.3 512l329.3-329.4a32 32 0 1 0-45.2-45.2L512 466.7 182.6 137.4a32 32 0 1 0-45.2 45.2L466.7 512 137.4 841.4a31.9 31.9 0 0 0 0 45.2 31.9 31.9 0 0 0 45.2 0L512 557.3l329.4 329.3a31.9 31.9 0 0 0 45.2 0 31.9 31.9 0 0 0 0-45.2z" fill="#2c2c2c" p-id="2327"></path></svg>