<?xml version="1.0" standalone="no"?><!DOCTYPE svg PUBLIC "-//W3C//DTD SVG 1.1//EN" "http://www.w3.org/Graphics/SVG/1.1/DTD/svg11.dtd"><svg t="1693670229105" class="icon" viewBox="0 0 1024 1024" version="1.1" xmlns="http://www.w3.org/2000/svg" p-id="1473" xmlns:xlink="http://www.w3.org/1999/xlink" width="200" height="200"><path d="M365.44 128a51.2 51.2 0 0 1 36.906667 15.701333l51.882666 53.930667A51.2 51.2 0 0 0 491.093333 213.333333H853.333333a85.333333 85.333333 0 0 1 85.333334 85.333334v512a85.333333 85.333333 0 0 1-85.333334 85.333333H170.666667a85.333333 85.333333 0 0 1-85.333334-85.333333V213.333333a85.333333 85.333333 0 0 1 85.333334-85.333333h194.773333z m-29.354667 85.504H213.333333a42.666667 42.666667 0 0 0-42.368 37.674667L170.666667 256.170667V768a42.666667 42.666667 0 0 0 37.674666 42.368L213.333333 810.666667h597.333334a42.666667 42.666667 0 0 0 42.368-37.674667L853.333333 768V341.333333a42.666667 42.666667 0 0 0-37.674666-42.368L810.666667 298.666667h-351.573334a42.666667 42.666667 0 0 1-25.344-8.362667l-4.181333-3.541333L365.653333 225.408a42.666667 42.666667 0 0 0-29.568-11.946667zM746.666667 405.333333a42.666667 42.666667 0 0 1 0 85.333334h-469.333334a42.666667 42.666667 0 0 1 0-85.333334h469.333334z" fill="#1296db" p-id="1474"></path></svg>